<svg width="30" height="31" viewBox="0 0 30 31" fill="none" xmlns="http://www.w3.org/2000/svg">
<g id="logos:whatsapp-icon" clip-path="url(#clip0_69_1811)">
<path id="Vector" d="M0.751359 15.752C0.750662 18.2726 1.40927 20.7338 2.66159 22.9031L0.631592 30.3149L8.21671 28.3261C10.3146 29.4682 12.6652 30.0666 15.0539 30.0668H15.0602C22.9457 30.0668 29.3646 23.6501 29.368 15.7633C29.3695 11.9415 27.8825 8.34782 25.1809 5.6441C22.4797 2.94061 18.8873 1.45096 15.0596 1.44922C7.17322 1.44922 0.754731 7.8655 0.751476 15.752" fill="url(#paint0_linear_69_1811)"/>
<path id="Vector_2" d="M0.24063 15.7475C0.239816 18.3587 0.922025 20.9079 2.219 23.1549L0.116211 30.8325L7.9733 28.7723C10.1382 29.9527 12.5756 30.575 15.0559 30.5759H15.0623C23.2306 30.5759 29.8802 23.9285 29.8837 15.7593C29.885 11.8002 28.3446 8.07734 25.5464 5.27676C22.748 2.47652 19.027 0.933269 15.0623 0.931641C6.89249 0.931641 0.243885 7.57815 0.24063 15.7475ZM4.91982 22.7679L4.62644 22.3022C3.39319 20.3413 2.74226 18.0752 2.74319 15.7484C2.74575 8.95827 8.27179 3.43397 15.0669 3.43397C18.3576 3.43536 21.4502 4.71815 23.7762 7.04559C26.1021 9.37327 27.382 12.4675 27.3812 15.7584C27.3782 22.5485 21.852 28.0735 15.0623 28.0735H15.0574C12.8466 28.0723 10.6783 27.4786 8.78737 26.3566L8.33737 26.0898L3.67482 27.3122L4.91982 22.7679Z" fill="url(#paint1_linear_69_1811)"/>
<path id="Vector_3" d="M11.3578 9.55329C11.0803 8.93666 10.7883 8.92422 10.5245 8.9134C10.3084 8.9041 10.0615 8.9048 9.81473 8.9048C9.56775 8.9048 9.16647 8.9977 8.82728 9.36805C8.48775 9.73875 7.53101 10.6346 7.53101 12.4565C7.53101 14.2786 8.8581 16.0394 9.0431 16.2868C9.22833 16.5336 11.6051 20.3922 15.3693 21.8767C18.4976 23.1103 19.1343 22.8649 19.8132 22.8031C20.4923 22.7414 22.0044 21.9075 22.3129 21.0427C22.6216 20.1781 22.6216 19.4369 22.529 19.282C22.4365 19.1277 22.1895 19.035 21.8191 18.8499C21.4487 18.6647 19.628 17.7688 19.2886 17.6451C18.949 17.5217 18.7022 17.46 18.4552 17.8308C18.2082 18.2011 17.499 19.035 17.2829 19.282C17.0669 19.5296 16.8508 19.5604 16.4805 19.3751C16.11 19.1893 14.9173 18.7987 13.5023 17.5372C12.4014 16.5556 11.6581 15.3434 11.4421 14.9726C11.226 14.6024 11.4189 14.4017 11.6046 14.2171C11.771 14.0512 11.9751 13.7847 12.1604 13.5685C12.3451 13.3522 12.4067 13.1979 12.5302 12.951C12.6538 12.7038 12.5919 12.4875 12.4995 12.3022C12.4067 12.117 11.6871 10.2855 11.3578 9.55329Z" fill="white"/>
</g>
<defs>
<linearGradient id="paint0_linear_69_1811" x1="1437.45" y1="2888.02" x2="1437.45" y2="1.44922" gradientUnits="userSpaceOnUse">
<stop stop-color="#1FAF38"/>
<stop offset="1" stop-color="#60D669"/>
</linearGradient>
<linearGradient id="paint1_linear_69_1811" x1="1488.49" y1="2991.01" x2="1488.49" y2="0.931641" gradientUnits="userSpaceOnUse">
<stop stop-color="#F9F9F9"/>
<stop offset="1" stop-color="white"/>
</linearGradient>
<clipPath id="clip0_69_1811">
<rect width="29.7674" height="30" fill="white" transform="translate(0.116211 0.931641)"/>
</clipPath>
</defs>
</svg>
