<svg width="31" height="31" viewBox="0 0 31 31" fill="none" xmlns="http://www.w3.org/2000/svg">
<g id="skill-icons:instagram" clip-path="url(#clip0_69_1806)">
<g id="Group">
<path id="Vector" d="M23.085 0.931641H7.14746C3.26421 0.931641 0.116211 4.07964 0.116211 7.96289V23.9004C0.116211 27.7836 3.26421 30.9316 7.14746 30.9316H23.085C26.9682 30.9316 30.1162 27.7836 30.1162 23.9004V7.96289C30.1162 4.07964 26.9682 0.931641 23.085 0.931641Z" fill="url(#paint0_radial_69_1806)"/>
<path id="Vector_2" d="M23.085 0.931641H7.14746C3.26421 0.931641 0.116211 4.07964 0.116211 7.96289V23.9004C0.116211 27.7836 3.26421 30.9316 7.14746 30.9316H23.085C26.9682 30.9316 30.1162 27.7836 30.1162 23.9004V7.96289C30.1162 4.07964 26.9682 0.931641 23.085 0.931641Z" fill="url(#paint1_radial_69_1806)"/>
<path id="Vector_3" d="M15.1173 4.21289C11.9347 4.21289 11.5352 4.22684 10.2853 4.28367C9.0377 4.34086 8.18609 4.53832 7.44102 4.82812C6.67016 5.12742 6.01637 5.52785 5.36504 6.17941C4.71313 6.83086 4.3127 7.48465 4.01246 8.25516C3.72184 9.00047 3.52414 9.85242 3.46801 11.0994C3.41211 12.3495 3.39746 12.7491 3.39746 15.9318C3.39746 19.1145 3.41152 19.5127 3.46824 20.7626C3.52566 22.0102 3.72313 22.8618 4.0127 23.6068C4.31223 24.3777 4.71266 25.0315 5.36422 25.6828C6.01543 26.3347 6.66922 26.7361 7.43949 27.0354C8.18516 27.3252 9.03687 27.5227 10.2842 27.5798C11.5343 27.6367 11.9334 27.6506 15.1159 27.6506C18.2988 27.6506 18.697 27.6367 19.9469 27.5798C21.1945 27.5227 22.047 27.3252 22.7927 27.0354C23.5632 26.7361 24.2161 26.3347 24.8671 25.6828C25.5191 25.0315 25.9194 24.3777 26.2197 23.6072C26.5078 22.8618 26.7056 22.0099 26.7642 20.7628C26.8203 19.5129 26.835 19.1145 26.835 15.9318C26.835 12.7491 26.8203 12.3497 26.7642 11.0996C26.7056 9.85207 26.5078 9.00059 26.2197 8.25551C25.9194 7.48465 25.5191 6.83086 24.8671 6.17941C24.2154 5.52762 23.5634 5.12719 22.792 4.82824C22.0449 4.53832 21.1929 4.34074 19.9453 4.28367C18.6952 4.22684 18.2973 4.21289 15.1136 4.21289H15.1173ZM14.066 6.32473C14.378 6.32426 14.7262 6.32473 15.1173 6.32473C18.2463 6.32473 18.6171 6.33598 19.8527 6.39211C20.9953 6.44438 21.6154 6.63527 22.0285 6.7957C22.5754 7.00805 22.9653 7.26199 23.3752 7.67227C23.7854 8.08242 24.0392 8.47301 24.2521 9.01992C24.4126 9.43242 24.6037 10.0526 24.6557 11.1952C24.7119 12.4305 24.7241 12.8016 24.7241 15.9291C24.7241 19.0566 24.7119 19.4277 24.6557 20.663C24.6035 21.8055 24.4126 22.4257 24.2521 22.8383C24.0398 23.3852 23.7854 23.7746 23.3752 24.1846C22.9651 24.5947 22.5757 24.8486 22.0285 25.061C21.6159 25.2221 20.9953 25.4126 19.8527 25.4648C18.6173 25.521 18.2463 25.5332 15.1173 25.5332C11.9881 25.5332 11.6172 25.521 10.382 25.4648C9.23937 25.4121 8.61922 25.2212 8.20578 25.0608C7.65898 24.8483 7.26828 24.5945 6.85812 24.1843C6.44797 23.7742 6.19414 23.3845 5.98121 22.8374C5.82078 22.4248 5.62965 21.8046 5.57762 20.662C5.52148 19.4266 5.51023 19.0556 5.51023 15.9261C5.51023 12.7968 5.52148 12.4276 5.57762 11.1922C5.62988 10.0496 5.82078 9.42949 5.98121 9.01641C6.19367 8.46949 6.44797 8.07891 6.85824 7.66875C7.2684 7.25859 7.65898 7.00465 8.2059 6.79184C8.61898 6.6307 9.23937 6.44027 10.382 6.38777C11.463 6.33891 11.882 6.32426 14.066 6.3218V6.32473ZM21.3727 8.27051C20.5964 8.27051 19.9665 8.89981 19.9665 9.67629C19.9665 10.4527 20.5964 11.0825 21.3727 11.0825C22.1491 11.0825 22.779 10.4527 22.779 9.67629C22.779 8.89992 22.1491 8.27004 21.3727 8.27004V8.27051ZM15.1173 9.91359C11.7938 9.91359 9.09922 12.6082 9.09922 15.9318C9.09922 19.2553 11.7938 21.9486 15.1173 21.9486C18.4408 21.9486 21.1345 19.2553 21.1345 15.9318C21.1345 12.6083 18.4406 9.91359 15.117 9.91359H15.1173ZM15.1173 12.0254C17.2746 12.0254 19.0236 13.7742 19.0236 15.9318C19.0236 18.0891 17.2746 19.8381 15.1173 19.8381C12.9598 19.8381 11.2111 18.0891 11.2111 15.9318C11.2111 13.7742 12.9598 12.0254 15.1173 12.0254Z" fill="white"/>
</g>
</g>
<defs>
<radialGradient id="paint0_radial_69_1806" cx="0" cy="0" r="1" gradientUnits="userSpaceOnUse" gradientTransform="translate(8.08496 33.2422) rotate(-90) scale(29.7322 27.6533)">
<stop stop-color="#FFDD55"/>
<stop offset="0.1" stop-color="#FFDD55"/>
<stop offset="0.5" stop-color="#FF543E"/>
<stop offset="1" stop-color="#C837AB"/>
</radialGradient>
<radialGradient id="paint1_radial_69_1806" cx="0" cy="0" r="1" gradientUnits="userSpaceOnUse" gradientTransform="translate(-4.90891 3.0927) rotate(78.681) scale(13.2905 54.7837)">
<stop stop-color="#3771C8"/>
<stop offset="0.128" stop-color="#3771C8"/>
<stop offset="1" stop-color="#6600FF" stop-opacity="0"/>
</radialGradient>
<clipPath id="clip0_69_1806">
<rect width="30" height="30" fill="white" transform="translate(0.116211 0.931641)"/>
</clipPath>
</defs>
</svg>
